<svg width="38" height="36" viewBox="0 0 38 36" fill="none" xmlns="http://www.w3.org/2000/svg">
<path d="M1.5 5.75C1.5 4.82174 1.86875 3.9315 2.52513 3.27513C3.1815 2.61875 4.07174 2.25 5 2.25H15.5V33.75H5C4.07174 33.75 3.1815 33.3813 2.52513 32.7249C1.86875 32.0685 1.5 31.1783 1.5 30.25V5.75ZM22.5 2.25H33C33.9283 2.25 34.8185 2.61875 35.4749 3.27513C36.1312 3.9315 36.5 4.82174 36.5 5.75V14.5H22.5V2.25ZM22.5 21.5H36.5V30.25C36.5 31.1783 36.1312 32.0685 35.4749 32.7249C34.8185 33.3813 33.9283 33.75 33 33.75H22.5V21.5Z" stroke="#1977F2" stroke-width="3" stroke-linecap="round" stroke-linejoin="round"/>
</svg>
