<svg width="36" height="34" viewBox="0 0 36 34" fill="none" xmlns="http://www.w3.org/2000/svg">
<path d="M30.25 7.375H25V5.625C25 4.23261 24.4469 2.89726 23.4623 1.91269C22.4777 0.928124 21.1424 0.375 19.75 0.375H16.25C14.8576 0.375 13.5223 0.928124 12.5377 1.91269C11.5531 2.89726 11 4.23261 11 5.625V7.375H5.75C4.35761 7.375 3.02226 7.92812 2.03769 8.91269C1.05312 9.89726 0.5 11.2326 0.5 12.625V28.375C0.5 29.7674 1.05312 31.1027 2.03769 32.0873C3.02226 33.0719 4.35761 33.625 5.75 33.625H30.25C31.6424 33.625 32.9777 33.0719 33.9623 32.0873C34.9469 31.1027 35.5 29.7674 35.5 28.375V12.625C35.5 11.2326 34.9469 9.89726 33.9623 8.91269C32.9777 7.92812 31.6424 7.375 30.25 7.375ZM14.5 5.625C14.5 5.16087 14.6844 4.71575 15.0126 4.38756C15.3408 4.05937 15.7859 3.875 16.25 3.875H19.75C20.2141 3.875 20.6592 4.05937 20.9874 4.38756C21.3156 4.71575 21.5 5.16087 21.5 5.625V7.375H14.5V5.625ZM32 28.375C32 28.8391 31.8156 29.2843 31.4874 29.6124C31.1593 29.9406 30.7141 30.125 30.25 30.125H5.75C5.28587 30.125 4.84075 29.9406 4.51256 29.6124C4.18437 29.2843 4 28.8391 4 28.375V18.75C8.45595 20.5177 13.2062 21.4262 18 21.4275C22.7936 21.4246 27.5436 20.5161 32 18.75V28.375ZM32 14.9175C27.5872 16.8561 22.8199 17.8571 18 17.8571C13.1801 17.8571 8.41281 16.8561 4 14.9175V12.625C4 12.1609 4.18437 11.7158 4.51256 11.3876C4.84075 11.0594 5.28587 10.875 5.75 10.875H30.25C30.7141 10.875 31.1593 11.0594 31.4874 11.3876C31.8156 11.7158 32 12.1609 32 12.625V14.9175Z" fill="#1977F2"/>
</svg>
