<svg width="142" height="50" viewBox="0 0 142 50" fill="none" xmlns="http://www.w3.org/2000/svg">
<g clip-path="url(#clip0_1_37897)">
<path d="M0 19.0789C0 16.1722 2.35636 13.8158 5.26307 13.8158H10.5261V24.3419H5.26307C2.35636 24.3419 0 21.9856 0 19.0789Z" fill="#FF823F"/>
<path fill-rule="evenodd" clip-rule="evenodd" d="M10.1749 37.667H10.1753C21.1248 37.667 30.0011 29.3824 30.0011 19.1629C30.0011 8.94338 21.1248 0.658813 10.1753 0.658813H10.1749V14.3161H15.5628C18.3002 14.3161 20.5193 16.5351 20.5193 19.2725C20.5193 22.0099 18.3002 24.229 15.5628 24.229H10.1749V37.667ZM10.1746 37.666H0.261719V49.3412H10.1746V37.666Z" fill="white"/>
<path d="M42.0296 23.549C42.7016 22.191 43.5136 21.127 44.4656 20.357C45.4176 19.573 46.5586 19.181 47.8886 19.181C48.3506 19.181 48.7846 19.237 49.1906 19.349C49.5966 19.447 49.9606 19.601 50.2826 19.811L49.9676 23.213C49.9116 23.451 49.8206 23.619 49.6946 23.717C49.5826 23.801 49.4286 23.843 49.2326 23.843C49.0226 23.843 48.7216 23.808 48.3296 23.738C47.9376 23.654 47.5246 23.612 47.0906 23.612C46.4606 23.612 45.9006 23.703 45.4106 23.885C44.9346 24.067 44.5006 24.333 44.1086 24.683C43.7306 25.033 43.3946 25.46 43.1006 25.964C42.8066 26.468 42.5336 27.042 42.2816 27.686V41H37.7666V19.58H40.3916C40.8676 19.58 41.1966 19.671 41.3786 19.853C41.5606 20.021 41.6866 20.322 41.7566 20.756L42.0296 23.549ZM61.7933 19.244C63.3753 19.244 64.8033 19.503 66.0773 20.021C67.3653 20.539 68.4573 21.274 69.3533 22.226C70.2633 23.178 70.9633 24.333 71.4533 25.691C71.9433 27.049 72.1883 28.575 72.1883 30.269C72.1883 31.963 71.9433 33.489 71.4533 34.847C70.9633 36.205 70.2633 37.367 69.3533 38.333C68.4573 39.285 67.3653 40.02 66.0773 40.538C64.8033 41.056 63.3753 41.315 61.7933 41.315C60.1973 41.315 58.7553 41.056 57.4673 40.538C56.1933 40.02 55.1013 39.285 54.1913 38.333C53.2813 37.367 52.5813 36.205 52.0913 34.847C51.6013 33.489 51.3563 31.963 51.3563 30.269C51.3563 28.575 51.6013 27.049 52.0913 25.691C52.5813 24.333 53.2813 23.178 54.1913 22.226C55.1013 21.274 56.1933 20.539 57.4673 20.021C58.7553 19.503 60.1973 19.244 61.7933 19.244ZM61.7933 37.787C63.7253 37.787 65.1603 37.143 66.0983 35.855C67.0503 34.553 67.5263 32.698 67.5263 30.29C67.5263 27.882 67.0503 26.027 66.0983 24.725C65.1603 23.409 63.7253 22.751 61.7933 22.751C59.8333 22.751 58.3773 23.409 57.4253 24.725C56.4733 26.027 55.9973 27.882 55.9973 30.29C55.9973 32.698 56.4733 34.553 57.4253 35.855C58.3773 37.143 59.8333 37.787 61.7933 37.787ZM81.2304 19.58V42.113C81.2304 43.009 81.1114 43.849 80.8734 44.633C80.6354 45.431 80.2574 46.124 79.7394 46.712C79.2214 47.3 78.5494 47.762 77.7234 48.098C76.9114 48.434 75.9244 48.602 74.7624 48.602C74.2724 48.602 73.8314 48.567 73.4394 48.497C73.0474 48.427 72.6484 48.329 72.2424 48.203L72.4104 45.746C72.4524 45.466 72.5714 45.305 72.7674 45.263C72.9494 45.221 73.3064 45.2 73.8384 45.2C74.9024 45.2 75.6444 44.962 76.0644 44.486C76.4984 44.024 76.7154 43.233 76.7154 42.113V19.58H81.2304ZM81.9654 13.112C81.9654 13.518 81.8814 13.903 81.7134 14.267C81.5594 14.631 81.3424 14.953 81.0624 15.233C80.7824 15.499 80.4604 15.716 80.0964 15.884C79.7324 16.038 79.3404 16.115 78.9204 16.115C78.5144 16.115 78.1294 16.038 77.7654 15.884C77.4154 15.716 77.1004 15.499 76.8204 15.233C76.5544 14.953 76.3444 14.631 76.1904 14.267C76.0364 13.903 75.9594 13.518 75.9594 13.112C75.9594 12.692 76.0364 12.3 76.1904 11.936C76.3444 11.572 76.5544 11.257 76.8204 10.991C77.1004 10.711 77.4154 10.494 77.7654 10.34C78.1294 10.172 78.5144 10.088 78.9204 10.088C79.3404 10.088 79.7324 10.172 80.0964 10.34C80.4604 10.494 80.7824 10.711 81.0624 10.991C81.3424 11.257 81.5594 11.572 81.7134 11.936C81.8814 12.3 81.9654 12.692 81.9654 13.112ZM100.952 27.875C100.952 27.119 100.84 26.419 100.616 25.775C100.406 25.117 100.091 24.55 99.6713 24.074C99.2513 23.584 98.7263 23.206 98.0963 22.94C97.4803 22.66 96.7663 22.52 95.9543 22.52C94.3163 22.52 93.0283 22.989 92.0903 23.927C91.1523 24.865 90.5573 26.181 90.3053 27.875H100.952ZM90.1793 30.647C90.2353 31.865 90.4243 32.922 90.7463 33.818C91.0683 34.7 91.4953 35.435 92.0273 36.023C92.5733 36.611 93.2173 37.052 93.9593 37.346C94.7153 37.626 95.5553 37.766 96.4793 37.766C97.3613 37.766 98.1243 37.668 98.7683 37.472C99.4123 37.262 99.9723 37.038 100.448 36.8C100.924 36.548 101.33 36.324 101.666 36.128C102.002 35.918 102.31 35.813 102.59 35.813C102.954 35.813 103.234 35.953 103.43 36.233L104.711 37.892C104.179 38.522 103.577 39.054 102.905 39.488C102.233 39.922 101.519 40.279 100.763 40.559C100.007 40.825 99.2303 41.014 98.4323 41.126C97.6343 41.252 96.8573 41.315 96.1013 41.315C94.6173 41.315 93.2383 41.07 91.9643 40.58C90.7043 40.076 89.6053 39.341 88.6673 38.375C87.7433 37.409 87.0153 36.212 86.4833 34.784C85.9653 33.356 85.7063 31.711 85.7063 29.849C85.7063 28.365 85.9373 26.979 86.3993 25.691C86.8753 24.403 87.5473 23.283 88.4153 22.331C89.2973 21.379 90.3613 20.63 91.6073 20.084C92.8673 19.524 94.2883 19.244 95.8703 19.244C97.1863 19.244 98.4043 19.461 99.5243 19.895C100.644 20.315 101.61 20.938 102.422 21.764C103.234 22.59 103.864 23.605 104.312 24.809C104.774 25.999 105.005 27.357 105.005 28.883C105.005 29.583 104.928 30.052 104.774 30.29C104.62 30.528 104.34 30.647 103.934 30.647H90.1793ZM124.357 23.78C124.217 23.962 124.084 24.102 123.958 24.2C123.832 24.298 123.65 24.347 123.412 24.347C123.174 24.347 122.922 24.263 122.656 24.095C122.404 23.927 122.096 23.745 121.732 23.549C121.382 23.339 120.955 23.15 120.451 22.982C119.947 22.814 119.317 22.73 118.561 22.73C117.581 22.73 116.72 22.905 115.978 23.255C115.25 23.605 114.634 24.109 114.13 24.767C113.64 25.411 113.269 26.202 113.017 27.14C112.779 28.064 112.66 29.107 112.66 30.269C112.66 31.473 112.793 32.544 113.059 33.482C113.325 34.42 113.703 35.211 114.193 35.855C114.697 36.499 115.299 36.989 115.999 37.325C116.713 37.661 117.511 37.829 118.393 37.829C119.261 37.829 119.968 37.724 120.514 37.514C121.06 37.304 121.515 37.073 121.879 36.821C122.243 36.569 122.551 36.338 122.803 36.128C123.069 35.918 123.349 35.813 123.643 35.813C124.007 35.813 124.287 35.953 124.483 36.233L125.764 37.892C125.246 38.522 124.672 39.054 124.042 39.488C123.412 39.922 122.747 40.279 122.047 40.559C121.347 40.825 120.619 41.014 119.863 41.126C119.107 41.252 118.344 41.315 117.574 41.315C116.244 41.315 114.998 41.07 113.836 40.58C112.688 40.076 111.68 39.355 110.812 38.417C109.958 37.465 109.279 36.31 108.775 34.952C108.285 33.58 108.04 32.019 108.04 30.269C108.04 28.687 108.264 27.224 108.712 25.88C109.16 24.522 109.811 23.353 110.665 22.373C111.533 21.393 112.604 20.63 113.878 20.084C115.152 19.524 116.622 19.244 118.288 19.244C119.842 19.244 121.207 19.496 122.383 20C123.573 20.504 124.63 21.218 125.554 22.142L124.357 23.78ZM136.263 41.336C134.485 41.336 133.113 40.839 132.147 39.845C131.195 38.837 130.719 37.423 130.719 35.603V23.129H128.367C128.115 23.129 127.898 23.052 127.716 22.898C127.534 22.73 127.443 22.485 127.443 22.163V20.336L130.908 19.832L131.895 13.637C131.965 13.399 132.084 13.21 132.252 13.07C132.42 12.916 132.644 12.839 132.924 12.839H135.234V19.874H141.177V23.129H135.234V35.288C135.234 36.058 135.423 36.646 135.801 37.052C136.179 37.458 136.683 37.661 137.313 37.661C137.663 37.661 137.964 37.619 138.216 37.535C138.468 37.437 138.685 37.339 138.867 37.241C139.049 37.129 139.203 37.031 139.329 36.947C139.469 36.849 139.602 36.8 139.728 36.8C139.98 36.8 140.183 36.94 140.337 37.22L141.681 39.425C140.981 40.041 140.155 40.517 139.203 40.853C138.251 41.175 137.271 41.336 136.263 41.336Z" fill="white"/>
</g>
<defs>
<clipPath id="clip0_1_37897">
<rect width="142.001" height="50" fill="white"/>
</clipPath>
</defs>
</svg>
